<svg width="186mm" height="24mm" viewBox="0 0 186 24" xmlns:xlink="http://www.w3.org/1999/xlink" xmlns="http://www.w3.org/2000/svg"><defs><linearGradient id="prefix__a"><stop offset="0" stop-color="#96ba5b"/><stop offset=".69" stop-color="#52b5a1" stop-opacity=".76"/></linearGradient><linearGradient xlink:href="#prefix__a" id="prefix__b" x1="36.742" y1="12.212" x2="185.807" y2="12.212" gradientUnits="userSpaceOnUse" gradientTransform="translate(-14.048 -6.04) scale(1.05526)"/></defs><text style="-inkscape-font-specification:'Nokia Pure Text, Normal';font-variant-ligatures:normal;font-variant-caps:normal;font-variant-numeric:normal;font-variant-east-asian:normal;mix-blend-mode:darken" x="22.13" y="18.096" transform="scale(1.01268 .98748)" font-weight="400" font-size="20.461" font-family="Nokia Pure Text" fill="url(#prefix__b)" stroke-width=".279"><tspan style="-inkscape-font-specification:'Nokia Pure Text, Normal';font-variant-ligatures:normal;font-variant-caps:normal;font-variant-numeric:normal;font-variant-east-asian:normal" x="22.13" y="18.096">Midori PM Privacy</tspan></text><g fill="#96ba5b"><path opacity=".4" d="M21.379 6.263v3.2L6.694 20.213l-2.968-2.22c-.734-.553-1.332-1.736-1.332-2.649V6.263c0-1.262.97-2.66 2.156-3.1L10.724.855c.643-.237 1.682-.237 2.325 0l6.174 2.31c1.185.44 2.156 1.837 2.156 3.099z"/><path d="M21.38 11.006v4.338c0 .913-.599 2.096-1.333 2.648l-6.174 4.609c-.541.406-1.264.608-1.986.608s-1.445-.202-1.987-.608L7.733 20.99z"/></g></svg>